<?xml version="1.0" encoding="UTF-8"?>
<svg width="100" height="100" viewBox="0 0 100 100" fill="none" xmlns="http://www.w3.org/2000/svg">
  <!-- Основной фон с градиентом -->
  <defs>
    <linearGradient id="bg-gradient" x1="0%" y1="0%" x2="100%" y2="100%">
      <stop offset="0%" stop-color="#4285F4"/>
      <stop offset="100%" stop-color="#34A853"/>
    </linearGradient>
    <filter id="shadow" x="-10%" y="-10%" width="120%" height="120%">
      <feDropShadow dx="0" dy="1" stdDeviation="2" flood-opacity="0.3"/>
    </filter>
  </defs>
  
  <!-- Основной круг логотипа -->
  <circle cx="50" cy="50" r="45" fill="url(#bg-gradient)" filter="url(#shadow)"/>
  
  <!-- Стилизованный роутер - основа -->
  <rect x="25" y="30" width="50" height="40" rx="5" fill="white" opacity="0.9"/>
  
  <!-- Антенны -->
  <rect x="35" y="15" width="4" height="15" rx="2" fill="white"/>
  <rect x="45" y="15" width="4" height="15" rx="2" fill="white"/>
  <rect x="55" y="15" width="4" height="15" rx="2" fill="white"/>
  <rect x="65" y="15" width="4" height="15" rx="2" fill="white"/>
  
  <!-- Элементы роутера - порты -->
  <rect x="30" y="55" width="8" height="5" rx="1" fill="#4285F4"/>
  <rect x="42" y="55" width="8" height="5" rx="1" fill="#4285F4"/>
  <rect x="54" y="55" width="8" height="5" rx="1" fill="#4285F4"/>
  <rect x="66" y="55" width="8" height="5" rx="1" fill="#4285F4"/>
  
  <!-- Индикаторы -->
  <circle cx="32" cy="40" r="3" fill="#34A853"/>
  <circle cx="42" cy="40" r="3" fill="#FBBC05"/>
  <circle cx="52" cy="40" r="3" fill="#EA4335"/>
  
  <!-- Сетевые линии -->
  <path d="M25 75 L40 85 L60 85 L75 75" stroke="white" stroke-width="2" stroke-linecap="round"/>
  <path d="M40 85 L40 95" stroke="white" stroke-width="2" stroke-linecap="round"/>
  <path d="M60 85 L60 95" stroke="white" stroke-width="2" stroke-linecap="round"/>
  <circle cx="40" cy="95" r="2" fill="white"/>
  <circle cx="60" cy="95" r="2" fill="white"/>
</svg>